<svg width="602.1799926757812px" height="124.439990234375px" xmlns="http://www.w3.org/2000/svg" viewBox="-51.089996337890625 12.780004882812499 602.1799926757812 124.439990234375" style="background: rgba(0, 0, 0, 0) none repeat scroll 0% 0%;" preserveAspectRatio="xMidYMid"><defs><filter id="editing-lego" x="-100%" y="-100%" width="300%" height="300%"><feFlood flood-color="#000" result="f1"></feFlood><feFlood flood-color="#ffffff" result="f2"></feFlood><feMorphology operator="dilate" radius="3" in="SourceAlpha"></feMorphology><feConvolveMatrix order="5,5" divisor="1" result="cm1" kernelMatrix="0 1 1 1 0  1 0 0 0 1  1 0 0 0 1  1 0 0 0 1  0 1 1 1 0"></feConvolveMatrix><feComposite operator="in" in="f1" in2="cm1" result="c1"></feComposite><feMorphology operator="dilate" radius="3"></feMorphology><feConvolveMatrix order="5,5" divisor="1" result="cm2" kernelMatrix="0 1 1 1 0  1 0 0 0 1  1 0 0 0 1  1 0 0 0 1  0 1 1 1 0"></feConvolveMatrix><feComposite operator="in" in="f2" in2="cm2" result="c2"></feComposite><feMerge><feMergeNode in="c2"></feMergeNode><feMergeNode in="c1"></feMergeNode><feMergeNode in="SourceGraphic"></feMergeNode></feMerge></filter></defs><g filter="url(#editing-lego)"><g transform="translate(36.369120836257935, 97.39999961853027)"><path d="M2.30-9.47L2.30-9.47L2.30-9.47Q2.30-11.97 2.94-15.17L2.94-15.17L8.13-42.24L22.27-42.24L17.15-14.98L17.15-14.98Q16.58-11.97 16.58-9.76L16.58-9.76L16.58-9.76Q16.58-7.55 17.50-6.40L17.50-6.40L17.50-6.40Q18.43-5.25 20.16-5.25L20.16-5.25L20.16-5.25Q21.89-5.25 22.98-5.70L22.98-5.70L22.98-5.70Q24.06-6.14 24.96-7.23L24.96-7.23L24.96-7.23Q26.69-9.41 27.78-14.98L27.78-14.98L32.96-42.24L42.62-42.24L37.50-15.04L37.50-15.04Q35.71-5.95 30.78-2.30L30.78-2.30L30.78-2.30Q25.98 1.28 16.51 1.28L16.51 1.28L16.51 1.28Q9.41 1.28 5.63-1.79L5.63-1.79L5.63-1.79Q2.30-4.48 2.30-9.47ZM50.50 0L43.46 0L51.14-42.24L64.90-42.24L74.88-13.18L80.19-42.24L87.30-42.18L79.49 0L64.83 0L55.62-27.97L50.50 0ZM95.49 0L88.45 0L96.13-42.24L109.89-42.24L119.87-13.18L125.18-42.24L132.29-42.18L124.48 0L109.82 0L100.61-27.97L95.49 0ZM161.98 1.28L161.98 1.28L161.98 1.28Q153.79 1.28 153.02-10.37L153.02-10.37L142.02-10.37L142.02-10.37Q140.74-7.42 139.84-4.86L139.84-4.86L138.18 0L129.22 0L149.38-42.24L163.14-42.24L165.82-11.14L165.82-11.14Q166.46-4.42 169.02-2.43L169.02-2.43L169.02-2.43Q167.17 1.28 161.98 1.28ZM147.52-23.17L144-15.04L152.83-15.04L152.06-31.49L152.06-33.22L147.52-23.17ZM178.18 0L170.82 0L182.40-42.24L195.78-42.24L198.72-18.11L210.62-42.24L221.82-42.24L222.98-10.62L222.98-10.62Q223.23-4.35 226.30-2.43L226.30-2.43L226.30-2.43Q225.60-1.15 223.55 0.06L223.55 0.06L223.55 0.06Q221.50 1.28 218.78 1.28L218.78 1.28L218.78 1.28Q216.06 1.28 214.46 0.51L214.46 0.51L214.46 0.51Q212.86-0.26 211.97-1.54L211.97-1.54L211.97-1.54Q210.37-3.84 210.37-8.26L210.37-8.26L210.37-28.03L197.76 0L189.82 0L185.34-28.74L178.18 0ZM256.38-9.86L256.38-9.86L256.38-9.86Q257.60-8.32 257.60-5.82L257.60-5.82L257.60-5.82Q257.60-2.37 255.04-0.54L255.04-0.54L255.04-0.54Q252.48 1.28 248.45 1.28L248.45 1.28L248.45 1.28Q246.14 1.28 242.62 0.77L242.62 0.77L242.62 0.77Q235.71-0.32 233.60-0.32L233.60-0.32L233.60-0.32Q231.49-0.32 230.66-0.22L230.66-0.22L230.66-0.22Q229.82-0.13 228.48 0L228.48 0L236.35-42.24L263.94-42.24L263.94-42.24Q263.94-38.34 262.05-36.29L262.05-36.29L262.05-36.29Q260.16-34.24 256.45-34.24L256.45-34.24L256.45-34.24Q252.74-34.24 248.96-35.97L248.96-35.97L246.98-24.77L258.37-24.77L258.37-24.77Q258.37-21.38 256.70-19.49L256.70-19.49L256.70-19.49Q255.04-17.60 252.26-17.60L252.26-17.60L252.26-17.60Q249.47-17.60 247.74-18.24L247.74-18.24L247.74-18.24Q246.02-18.88 245.82-19.07L245.82-19.07L243.52-6.98L243.52-6.98Q245.06-6.78 247.94-6.78L247.94-6.78L247.94-6.78Q252.86-6.78 256.38-9.86ZM305.02-26.56L305.02-26.56L305.02-26.56Q305.02 0.70 275.46 0.70L275.46 0.70L275.46 0.70Q270.72 0.70 262.91-0.45L262.91-0.45L270.08-38.27L270.08-38.27Q270.59-40.83 270.91-42.30L270.91-42.30L270.91-42.30Q280.64-43.01 284.96-43.01L284.96-43.01L284.96-43.01Q289.28-43.01 293.25-42.11L293.25-42.11L293.25-42.11Q297.22-41.22 299.84-39.23L299.84-39.23L299.84-39.23Q305.02-35.33 305.02-26.56ZM291.84-28.93L291.84-28.93L291.84-28.93Q291.84-38.46 284.99-38.46L284.99-38.46L284.35-38.46L284.35-38.46Q284.03-38.46 283.71-38.40L283.71-38.40L277.12-4.03L277.12-4.03Q277.38-3.90 277.63-3.90L277.63-3.90L278.14-3.90L278.14-3.90Q280.51-3.90 282.98-5.38L282.98-5.38L282.98-5.38Q285.44-6.85 287.36-9.86L287.36-9.86L287.36-9.86Q291.84-16.83 291.84-28.93ZM333.31-42.69L333.31-42.69L333.31-42.69Q348.99-42.69 348.99-31.62L348.99-31.62L348.99-31.62Q348.99-25.54 345.09-21.89L345.09-21.89L345.09-21.89Q341.25-18.24 334.53-18.24L334.53-18.24L334.53-18.24Q331.39-18.24 328.96-20.03L328.96-20.03L328.96-20.03Q327.81-20.80 327.04-21.82L327.04-21.82L327.04-21.82Q331.71-21.82 334.18-24.67L334.18-24.67L334.18-24.67Q336.64-27.52 336.64-33.09L336.64-33.09L336.64-33.09Q336.64-38.66 331.14-38.66L331.14-38.66L329.60-38.66L329.60-38.66Q329.22-38.66 328.90-38.59L328.90-38.59L321.54 0L307.65 0L315.52-41.92L315.52-41.92Q322.37-42.56 326.34-42.62L326.34-42.62L326.34-42.62Q330.30-42.69 333.31-42.69ZM375.87 1.28L375.87 1.28L375.87 1.28Q367.68 1.28 366.91-10.37L366.91-10.37L355.90-10.37L355.90-10.37Q354.62-7.42 353.73-4.86L353.73-4.86L352.06 0L343.10 0L363.26-42.24L377.02-42.24L379.71-11.14L379.71-11.14Q380.35-4.42 382.91-2.43L382.91-2.43L382.91-2.43Q381.06 1.28 375.87 1.28ZM361.41-23.17L357.89-15.04L366.72-15.04L365.95-31.49L365.95-33.22L361.41-23.17ZM419.33-13.25L419.33-13.25L419.33-13.25Q420.99-12.03 420.99-9.44L420.99-9.44L420.99-9.44Q420.99-6.85 419.87-5.02L419.87-5.02L419.87-5.02Q418.75-3.20 416.58-1.79L416.58-1.79L416.58-1.79Q411.90 1.22 403.74 1.22L403.74 1.22L403.74 1.22Q395.58 1.22 391.14-3.04L391.14-3.04L391.14-3.04Q386.69-7.30 386.69-14.85L386.69-14.85L386.69-14.85Q386.69-25.54 392.26-33.66L392.26-33.66L392.26-33.66Q396.48-39.68 404.03-42.24L404.03-42.24L404.03-42.24Q407.94-43.52 411.78-43.52L411.78-43.52L411.78-43.52Q415.62-43.52 417.98-43.01L417.98-43.01L417.98-43.01Q420.35-42.50 422.14-41.47L422.14-41.47L422.14-41.47Q426.05-39.23 426.05-35.65L426.05-35.65L426.05-35.65Q426.05-32.38 422.98-29.95L422.98-29.95L422.98-29.95Q420.16-27.78 417.86-27.78L417.86-27.78L417.86-27.78Q415.55-27.78 414.59-28.10L414.59-28.10L414.59-28.10Q414.85-30.40 414.85-31.90L414.85-31.90L414.85-31.90Q414.85-33.41 414.78-34.50L414.78-34.50L414.78-34.50Q414.72-35.58 414.40-36.61L414.40-36.61L414.40-36.61Q413.76-38.98 411.81-38.98L411.81-38.98L411.81-38.98Q409.86-38.98 407.90-37.15L407.90-37.15L407.90-37.15Q405.95-35.33 404.29-32.26L404.29-32.26L404.29-32.26Q400.51-25.28 400.51-17.02L400.51-17.02L400.51-17.02Q400.51-13.06 402.75-10.78L402.75-10.78L402.75-10.78Q404.99-8.51 409.79-8.51L409.79-8.51L409.79-8.51Q413.38-8.51 416.77-10.88L416.77-10.88L416.77-10.88Q418.24-11.90 419.33-13.25Z" fill="#fff"></path></g></g><style>text {
  font-size: 64px;
  font-family: Arial Black;
  dominant-baseline: central;
  text-anchor: middle;
}</style></svg>